<?xml version="1.0" encoding="UTF-8" standalone="no"?>
<!-- Created with Inkscape (http://www.inkscape.org/) -->

<svg
   width="61.954842mm"
   height="16.510017mm"
   viewBox="0 0 61.954842 16.510017"
   version="1.1"
   id="svg5"
   sodipodi:docname="dani3.svg"
   inkscape:export-filename="dani3_plain.svg"
   inkscape:export-xdpi="96"
   inkscape:export-ydpi="96"
   xmlns:inkscape="http://www.inkscape.org/namespaces/inkscape"
   xmlns:sodipodi="http://sodipodi.sourceforge.net/DTD/sodipodi-0.dtd"
   xmlns="http://www.w3.org/2000/svg"
   xmlns:svg="http://www.w3.org/2000/svg">
  <sodipodi:namedview
     id="namedview7"
     pagecolor="#505050"
     bordercolor="#eeeeee"
     borderopacity="1"
     inkscape:showpageshadow="0"
     inkscape:pageopacity="0"
     inkscape:pagecheckerboard="0"
     inkscape:deskcolor="#505050"
     inkscape:document-units="mm"
     showgrid="false" />
  <defs
     id="defs2" />
  <g
     inkscape:label="Capa 1"
     inkscape:groupmode="layer"
     id="layer1"
     transform="translate(-54.104242,-117.21074)">
    <g
       aria-label="Dani3"
       id="text113"
       style="font-size:21.1667px;line-height:1.25;stroke-width:0.264583">
      <path
         d="m 68.582266,125.65626 c 0,-4.52967 -3.471339,-7.55651 -8.678347,-7.55651 h -5.799676 v 15.09185 h 5.799676 c 5.207008,0 8.678347,-3.00567 8.678347,-7.53534 z m -8.678347,-4.63551 c 2.942171,0 4.910675,1.79917 4.910675,4.63551 0,2.81517 -1.968504,4.61434 -4.910675,4.61434 h -2.11667 v -9.24985 z"
         style="font-weight:bold;font-family:Octarine;-inkscape-font-specification:'Octarine Bold'"
         id="path316" />
      <path
         d="m 76.350441,121.90975 c -3.534839,0 -6.03251,2.45534 -6.03251,5.86318 0,3.45017 2.18017,5.84201 5.334009,5.84201 1.502835,0 2.794004,-0.61384 3.683006,-1.7145 v 1.29116 h 3.090338 v -5.41867 c 0,-3.40784 -2.540004,-5.86318 -6.074843,-5.86318 z m 0.02117,2.96334 c 1.566335,0 2.68817,1.2065 2.68817,2.89984 0,1.67217 -1.121835,2.87867 -2.68817,2.87867 -1.566336,0 -2.688171,-1.2065 -2.688171,-2.87867 0,-1.69334 1.121835,-2.89984 2.688171,-2.89984 z"
         style="font-weight:bold;font-family:Octarine;-inkscape-font-specification:'Octarine Bold'"
         id="path318" />
      <path
         d="m 91.442262,121.90975 c -1.418169,0 -2.561171,0.74084 -3.344339,1.90501 v -1.48167 h -3.259672 v 10.85851 h 3.365505 v -6.07484 c 0,-1.31233 0.846668,-2.24367 2.010837,-2.24367 1.185335,0 1.98967,0.9525 1.98967,2.30717 v 6.01134 h 3.365505 v -6.81567 c 0,-2.58234 -1.735669,-4.46618 -4.127506,-4.46618 z"
         style="font-weight:bold;font-family:Octarine;-inkscape-font-specification:'Octarine Bold'"
         id="path320" />
      <path
         d="m 98.236744,133.1916 h 3.365506 v -10.85851 h -3.365506 z m -0.254001,-14.09702 c 0,1.0795 0.804335,1.86267 1.92617,1.86267 1.142997,0 1.947337,-0.78317 1.947337,-1.86267 0,-1.10067 -0.80434,-1.88383 -1.947337,-1.88383 -1.121835,0 -1.92617,0.78316 -1.92617,1.88383 z"
         style="font-weight:bold;font-family:Octarine;-inkscape-font-specification:'Octarine Bold'"
         id="path322" />
      <path
         d="m 110.04774,117.57058 c -2.70934,0 -5.12234,1.22767 -5.56684,3.00567 v 1.79917 h 3.09034 c 0,-1.22767 1.18533,-1.8415 2.43417,-1.8415 1.37583,0 2.3495,0.6985 2.3495,1.7145 0,1.18534 -1.31234,1.905 -3.38667,1.905 v 2.20134 c 1.69333,0 3.45017,0.5715 3.45017,2.286 0,1.22767 -1.016,2.11667 -2.45534,2.11667 -1.651,-0.0212 -2.667,-1.05833 -2.68817,-2.4765 h -3.21734 v 1.524 c 0.29634,2.30717 2.81517,3.91584 6.15951,3.91584 3.42901,0 5.84201,-1.778 5.84201,-4.33917 0,-2.11667 -1.18533,-3.55601 -3.302,-4.06401 1.69333,-0.40217 2.8575,-1.54517 2.8575,-3.28084 0,-2.87867 -2.4765,-4.46617 -5.56684,-4.46617 z"
         style="font-weight:bold;font-family:Octarine;-inkscape-font-specification:'Octarine Bold'"
         id="path324" />
    </g>
  </g>
</svg>
